# xmcd
#
# Track frame offsets:
#	150
#	14490
#	28112
#	42170
#	54257
#	63380
#	73237
#	83125
#	95980
#	107910
#	121767
#	137037
#	146472
#	156315
#	166497
#
# Disc length: 2354
#
# Revision: 2
# Processed by: cddbd v1.5.1PL0 Copyright (c) Steve Scherf et al.
# Submitted via: audiograbber 1.81.03
# Normalized: r1:TDELIM( - )
#
DISCID=d509300f
DTITLE=Various Artist - Country Stars Vol 1 Disk A
DYEAR=1900
DGENRE=Country
TTITLE0=Bobby Helms - My Special Angel
TTITLE1=Oak Ridge Boys - The Old Country Church
TTITLE2=Mac Davis - I feel TheCcountry Calling Me
TTITLE3=Freddy Fender - You'll Lose a Good Thing
TTITLE4=Del Reeves - Good Time Charlie
TTITLE5=Ernest Tubb - Half My Heart's In Texas
TTITLE6=Johnny Lee - Red Sails In The Sunset
TTITLE7=Hank Williams Sr - Jambalaya
TTITLE8=Willie Nelson - I Hope so
TTITLE9=Ricky Skaggs - Another Song, Another Drink
TTITLE10=Johnny Lee - Country Party
TTITLE11=George Jones - The Race Is On
TTITLE12=Johnny Cash - Rock Island Line
TTITLE13=Carl Perkins - Blue suede Shoes
TTITLE14=Leroy Van Dyke - If A Woman Answers
EXTD=
EXTT0=
EXTT1=
EXTT2=
EXTT3=
EXTT4=
EXTT5=
EXTT6=
EXTT7=
EXTT8=
EXTT9=
EXTT10=
EXTT11=
EXTT12=
EXTT13=
EXTT14=
PLAYORDER=
